<svg xmlns="http://www.w3.org/2000/svg" xmlns:xlink="http://www.w3.org/1999/xlink" xml:space="preserve" width="2048px" height="2048px" style="shape-rendering:geometricPrecision; text-rendering:geometricPrecision; image-rendering:optimizeQuality; fill-rule:evenodd; clip-rule:evenodd" viewBox="0 0 2048 2048">
 <defs fill="#ff8e31">
  <style type="text/css">
   <![CDATA[
    .fil4 {fill:none}
    .fil2 {fill:#ff8e31}
    .fil1 {fill:#ff8e31}
    .fil3 {fill:#ECECEC}
    .fil0 {fill:#ff8e31;fill-rule:nonzero}
   ]]>
  </style>
 </defs>
 <g id="Layer_x0020_1">
  <metadata id="CorelCorpID_0Corel-Layer" fill="#ff8e31"/>
  <g id="_315964304">
   <path id="_315965072" class="fil0" d="M1179.02 430.261c-2.07047,18.15 10.963,34.5449 29.1118,36.6166 18.15,2.07047 34.5449,-10.963 36.6166,-29.113 0.322441,-2.75906 0.590552,-5.88189 0.797245,-9.38032 0.230315,-3.94725 0.351969,-7.1256 0.351969,-9.47953l0 -0.00236221c0,-44.8323 -18.3189,-85.5662 -47.8276,-115.075 -29.5099,-29.5087 -70.2449,-47.8276 -115.077,-47.8276l-117.983 0c-44.8323,0 -85.5674,18.3189 -115.077,47.8276 -29.5087,29.5087 -47.8276,70.2426 -47.8276,115.075l0 0.00236221c0,2.35394 0.121654,5.53229 0.351969,9.47953 0.206693,3.49843 0.474804,6.62126 0.797245,9.38032 2.07166,18.15 18.4665,31.1835 36.6166,29.113 18.1488,-2.07166 31.1823,-18.4665 29.1118,-36.6166 -0.263386,-2.24528 -0.445276,-4.17402 -0.538583,-5.75906 -0.0602363,-1.04055 -0.0921261,-2.89016 -0.0921261,-5.59725l0 -0.00236221c0,-26.5453 10.885,-50.7048 28.4185,-68.2371 17.5335,-17.5335 41.6918,-28.4197 68.2394,-28.4197l117.983 0c26.5477,0 50.7059,10.8862 68.2394,28.4197 17.5335,17.5323 28.4185,41.6918 28.4185,68.2371l0 0.00236221c0,2.70709 -0.0318898,4.5567 -0.0921261,5.59725 -0.0933072,1.58504 -0.275197,3.51378 -0.538583,5.75906z" fill="#ff8e31"/>
   <polygon id="_315965216" class="fil1" points="451.596,659.8 1596.4,659.8 1463.91,1792 584.084,1792 " fill="#ff8e31"/>
   <polygon id="_315964928" class="fil2" points="1728.87,407.389 1697.96,671.495 350.039,671.495 319.133,407.389 " fill="#ff8e31"/>
   <path id="_315965384" class="fil3" d="M696.41 892.892l64.7977 669.59c1.71378,18.1488 17.8193,31.4729 35.9693,29.7579 18.15,-1.71378 31.4729,-17.8193 29.7591,-35.9693l-64.7977 -669.589c-1.71378,-18.15 -17.8193,-31.4729 -35.9693,-29.7591 -18.15,1.71378 -31.4729,17.8193 -29.7591,35.9693z" fill="#ff8e31"/>
   <path id="_315965144" class="fil3" d="M990.877 872.358l0 687.018c0,18.2917 14.8299,33.1229 33.1229,33.1229 18.2929,0 33.1229,-14.8311 33.1229,-33.1229l0 -687.018c0,-18.2929 -14.8299,-33.1229 -33.1229,-33.1229 -18.2929,0 -33.1229,14.8299 -33.1229,33.1229z" fill="#ff8e31"/>
   <path id="_315964376" class="fil3" d="M1285.86 886.681l-64.7965 669.589c-1.71378,18.15 11.6091,34.2555 29.7591,35.9693 18.15,1.71496 34.2555,-11.6091 35.9693,-29.7579l64.7965 -669.59c1.71378,-18.15 -11.6091,-34.2555 -29.7591,-35.9693 -18.15,-1.71378 -34.2555,11.6091 -35.9693,29.7591z" fill="#ff8e31"/>
  </g>
 </g>
 <rect class="fil4" width="2048" height="2048" fill="#ff8e31"/>
</svg>